<svg xmlns="http://www.w3.org/2000/svg" viewBox="0 0 32 32">
  <defs>
    <linearGradient id="bg" x1="4" y1="2" x2="28" y2="30" gradientUnits="userSpaceOnUse">
      <stop offset="0" stop-color="#4F46E5"/>
      <stop offset="0.55" stop-color="#7C3AED"/>
      <stop offset="1" stop-color="#A855F7"/>
    </linearGradient>
    <linearGradient id="duck" x1="18" y1="6" x2="27" y2="20" gradientUnits="userSpaceOnUse">
      <stop offset="0" stop-color="#FFE680"/>
      <stop offset="1" stop-color="#FACC15"/>
    </linearGradient>
  </defs>

  <rect x="2" y="2" width="28" height="28" rx="8" fill="url(#bg)"/>

  <!-- Resume sheet -->
  <path d="M8 6.5h10.3L23.5 12v13.2c0 .8-.6 1.3-1.3 1.3H8.8c-.7 0-1.3-.6-1.3-1.3V7.8c0-.7.6-1.3 1.3-1.3Z" fill="#FFFFFF"/>
  <path d="M18.2 6.7v4c0 .8.6 1.4 1.4 1.4h3.7L18.2 6.7Z" fill="#EADDFF"/>
  <rect x="10.3" y="15.5" width="8.7" height="1.45" rx=".72" fill="#6750A4" opacity=".86"/>
  <rect x="10.3" y="19" width="7.4" height="1.45" rx=".72" fill="#6750A4" opacity=".62"/>
  <rect x="10.3" y="22.5" width="5.4" height="1.45" rx=".72" fill="#6750A4" opacity=".44"/>

  <!-- Jianliya duck mark -->
  <circle cx="21.4" cy="12.2" r="5.4" fill="url(#duck)"/>
  <path d="M25.4 12.5h3c.9 0 1.5.8 1 1.5-.2.3-.5.5-.9.6l-3.1.8c-.6.2-1.1-.3-1.1-.9v-.9c0-.6.5-1.1 1.1-1.1Z" fill="#FB923C"/>
  <circle cx="22.8" cy="10.8" r=".85" fill="#1C1B1F"/>
  <path d="M18.1 14.1c.9 1.8 2.7 3 4.8 3" fill="none" stroke="#F59E0B" stroke-width="1.2" stroke-linecap="round"/>
</svg>
